<?xml version="1.0" standalone="no"?>
<!DOCTYPE svg PUBLIC "-//W3C//DTD SVG 20010904//EN"
 "http://www.w3.org/TR/2001/REC-SVG-20010904/DTD/svg10.dtd">
<svg version="1.0" xmlns="http://www.w3.org/2000/svg"
 width="112.000000pt" height="112.000000pt" viewBox="0 0 112.000000 112.000000"
 preserveAspectRatio="xMidYMid meet">
<metadata>
Created by potrace 1.11, written by Peter Selinger 2001-2013
</metadata>
<g transform="translate(0.000000,112.000000) scale(0.100000,-0.100000)"
fill="#000000" stroke="none">
<path d="M442 1101 c-149 -43 -282 -142 -349 -261 -68 -119 -90 -287 -57 -419
46 -176 185 -325 363 -387 240 -84 503 -4 655 199 20 27 36 54 36 60 0 8 -20
11 -62 10 -62 -2 -64 -3 -124 -60 -183 -175 -449 -175 -624 0 -114 114 -158
261 -123 411 81 351 512 475 755 218 52 -55 53 -56 115 -57 35 -1 63 2 63 7 0
40 -88 143 -172 199 -126 86 -332 121 -476 80z"/>
<path d="M505 852 c-194 -68 -270 -299 -154 -468 134 -195 435 -169 541 46 33
66 33 196 -1 262 -73 142 -240 212 -386 160z m203 -155 c133 -88 76 -289 -87
-305 -118 -11 -217 105 -181 213 37 113 169 158 268 92z"/>
</g>
</svg>
